<svg xmlns="http://www.w3.org/2000/svg" xmlns:xlink="http://www.w3.org/1999/xlink" width="70" height="52" viewBox="0 0 70 52">
  <metadata><?xpacket begin="﻿" id="W5M0MpCehiHzreSzNTczkc9d"?>
<x:xmpmeta xmlns:x="adobe:ns:meta/" x:xmptk="Adobe XMP Core 5.6-c138 79.159824, 2016/09/14-01:09:01        ">
   <rdf:RDF xmlns:rdf="http://www.w3.org/1999/02/22-rdf-syntax-ns#">
      <rdf:Description rdf:about=""/>
   </rdf:RDF>
</x:xmpmeta>
                                                                                                    
                                                                                                    
                                                                                                    
                                                                                                    
                                                                                                    
                                                                                                    
                                                                                                    
                                                                                                    
                                                                                                    
                                                                                                    
                                                                                                    
                                                                                                    
                                                                                                    
                                                                                                    
                                                                                                    
                                                                                                    
                                                                                                    
                                                                                                    
                                                                                                    
                                                                                                    
                           
<?xpacket end="w"?></metadata>
<defs>
    <style>
      .cls-1 {
        filter: url(#filter);
      }

      .cls-2 {
        fill: none;
        stroke: #000;
        stroke-width: 4.5px;
      }

      .cls-2, .cls-3 {
        fill-rule: evenodd;
      }
    </style>
    <filter id="filter" filterUnits="userSpaceOnUse">
      <feFlood result="flood" flood-color="#fff"/>
      <feComposite result="composite" operator="in" in2="SourceGraphic"/>
      <feBlend result="blend" in2="SourceGraphic"/>
    </filter>
  </defs>
  <g id="backspace" class="cls-1">
    <path id="sorta_pentagon" data-name="sorta pentagon" class="cls-2" d="M57.159,51.153l-26.223-.076s-7.079,0-9.661-2.887L1.565,29.06a4.865,4.865,0,0,1,0-6.878L21.284,3.049C24.672-.525,31.038.2,31.038,0.2l26.121-.055a12,12,0,0,1,12,12V39.15A12,12,0,0,1,57.159,51.153Z"/>
    <path id="cross" class="cls-3" d="M31.158,15.609l0.965-.964a1.363,1.363,0,0,1,1.928,0L53.117,33.665a1.365,1.365,0,0,1,0,1.93l-0.965.965a1.365,1.365,0,0,1-1.93,0L31.158,17.538A1.365,1.365,0,0,1,31.158,15.609Zm22,0-0.965-.964a1.363,1.363,0,0,0-1.928,0L31.2,33.665a1.365,1.365,0,0,0,0,1.93l0.965,0.965a1.363,1.363,0,0,0,1.928,0L53.159,17.538A1.365,1.365,0,0,0,53.159,15.609Z"/>
  </g>
</svg>
